<svg xmlns="http://www.w3.org/2000/svg" viewBox="0 0 228.51 228.51"><defs><style>.cls-1{fill:#1d1d1b;}.cls-2{fill:#5bc2e8;}.cls-3{fill:#fff;stroke:#1d1d1b;stroke-miterlimit:10;}</style></defs><g id="Capa_2" data-name="Capa 2"><g id="Capa_1-2" data-name="Capa 1"><rect class="cls-1" width="228.51" height="228.51"/><path class="cls-2" d="M176.34,128.7H149.09V115h13.54V45.8H107.35v55.14H93.57V31.86h82.77Z"/><path class="cls-2" d="M134.85,128.71H52.17V31.9H79.33V45.52H65.88v69.23H121V59.65h13.82Z"/><path class="cls-3" d="M109.63,141.4h7.09q1.5,8.15,3,16.25l.19,0c-.3-5.36-.6-10.71-.91-16.18h8v39.66c-2.21,0-4.42,0-6.62-.05-.26,0-.65-.7-.73-1.13-.87-4.51-1.69-9-2.52-13.55,0-.13-.1-.26-.37-.36.23,5,.47,9.95.71,15h-7.85Z"/><path class="cls-3" d="M62.83,141.41h7.06l3,15.94.25,0c-.3-5.25-.6-10.5-.9-15.86h7.88V181h-7c-1-5.15-1.92-10.34-2.88-15.53l-.27,0L70.64,181H62.83Z"/><path class="cls-3" d="M162.73,181V163.83c0-1.47.05-2.76-1.29-4-1-.89-1.21-2.69-1.48-4.14-.86-4.71-1.6-9.44-2.39-14.26h8c.37,5.25.74,10.45,1.1,15.64h.11c.37-5.19.75-10.38,1.13-15.64h8c-.58,3.61-1.12,7.16-1.73,10.7a51.14,51.14,0,0,1-1.26,5.9,15.77,15.77,0,0,1-1.68,2.69,3.51,3.51,0,0,0-.52,1.64c0,5.64,0,11.29,0,16.93V181Z"/><path class="cls-3" d="M82.52,141.44h15v5.9H90.54v10.8h5.3v6.06H90.48V181h-8Z"/><path class="cls-3" d="M151.62,181.07h-8.06V147.43h-4.73v-6h17.34v5.92h-4.55Z"/><path class="cls-3" d="M129.39,141.44h7.81V181h-7.81Z"/><path class="cls-3" d="M107.18,181H99.44V141.46h7.74Z"/><path class="cls-3" d="M60.32,181H52.61V141.44h7.71Z"/><path class="cls-2" d="M99.07,196.65a5.38,5.38,0,0,1-5.28-5.71,5.54,5.54,0,1,1,11.08.18A5.47,5.47,0,0,1,99.07,196.65Zm5-5.65a4.54,4.54,0,0,0-4.63-4.89,4.47,4.47,0,0,0-4.74,4.75c0,2.95,1.91,5,4.69,5A4.59,4.59,0,0,0,104,191Z"/><path class="cls-2" d="M128.81,196.31v-11a39.15,39.15,0,0,1,5.8.6c2.23.55,3.47,2.92,3.29,5.54a4.94,4.94,0,0,1-4.09,4.79A37.75,37.75,0,0,1,128.81,196.31Zm.79-.66c2.74,0,5.37.32,6.93-2.36a5,5,0,0,0-.45-5.41c-1.8-2.09-4.16-1.59-6.48-1.56Z"/><path class="cls-2" d="M159.88,196.18a6.91,6.91,0,0,1-.1-.84c0-3.2,0-6.41,0-9.72h7.48l0,.53c-1,0-2.09.1-3.13.12s-2.25,0-3.49,0v4.3H167v.63h-6.32v4.51h6.74v.47Z"/><path class="cls-2" d="M70.36,194.61c-.9,1.73-3.15,2.37-5.52,1.74a5.31,5.31,0,0,1-3.74-5.44,5.12,5.12,0,0,1,3.82-5.2c2.39-.66,4.5-.09,5.58,1.76-3-1.79-5.75-2.2-7.92.79a5,5,0,0,0,.34,5.81C65.16,196.58,67.73,196.07,70.36,194.61Z"/></g></g></svg>